<svg xmlns="http://www.w3.org/2000/svg" viewBox="0 0 100 100" width="32" height="32">
  <defs>
    <!-- メインのグラデーション -->
    <linearGradient id="mainGradient" x1="0%" y1="0%" x2="100%" y2="100%">
      <stop offset="0%" style="stop-color:#667eea;stop-opacity:1" />
      <stop offset="100%" style="stop-color:#764ba2;stop-opacity:1" />
    </linearGradient>
    
    <!-- シャドウフィルター -->
    <filter id="shadow" x="-20%" y="-20%" width="140%" height="140%">
      <feDropShadow dx="2" dy="2" stdDeviation="2" flood-color="#000000" flood-opacity="0.25"/>
    </filter>
  </defs>
  
  <!-- 背景円 -->
  <circle cx="50" cy="50" r="47" fill="url(#mainGradient)" filter="url(#shadow)"/>
  
  <!-- シンプルで大きな"C"文字 -->
  <path d="M 38 25 
           C 25 25, 18 32, 18 45
           C 18 50, 18 55, 18 60
           C 18 73, 25 80, 38 80
           C 51 80, 58 73, 58 65
           L 48 65
           C 48 68, 45 70, 38 70
           C 30 70, 28 68, 28 60
           L 28 45
           C 28 37, 30 35, 38 35
           C 45 35, 48 37, 48 40
           L 58 40
           C 58 32, 51 25, 38 25 Z" 
        fill="white" 
        stroke="none"/>
  
  <!-- 右側に小さなネットワーク/接続を表現する3つの点と線 -->
  <g opacity="0.9">
    <!-- 3つの点 -->
    <circle cx="72" cy="35" r="3" fill="white"/>
    <circle cx="72" cy="50" r="3" fill="white"/>
    <circle cx="72" cy="65" r="3" fill="white"/>
    
    <!-- 接続線 -->
    <line x1="58" y1="40" x2="69" y2="35" stroke="white" stroke-width="2" stroke-linecap="round"/>
    <line x1="58" y1="50" x2="69" y2="50" stroke="white" stroke-width="2" stroke-linecap="round"/>
    <line x1="58" y1="60" x2="69" y2="65" stroke="white" stroke-width="2" stroke-linecap="round"/>
  </g>
</svg>